<svg width="16" height="16" viewBox="0 0 16 16" fill="none" xmlns="http://www.w3.org/2000/svg">
<g clip-path="url(#clip0)">
<path d="M15.7312 7.15277L8.55255 0.611599C8.23746 0.324443 7.7623 0.324475 7.44733 0.611568L0.268627 7.15281C0.0162216 7.38281 -0.0671533 7.73718 0.056159 8.05558C0.179502 8.37399 0.479814 8.57971 0.821283 8.57971H1.96784V15.1335C1.96784 15.3933 2.17853 15.604 2.43837 15.604H6.37318C6.63302 15.604 6.84371 15.3934 6.84371 15.1335V11.1542H9.15627V15.1335C9.15627 15.3934 9.36695 15.604 9.6268 15.604H13.5614C13.8213 15.604 14.0319 15.3934 14.0319 15.1335V8.57971H15.1787C15.5202 8.57971 15.8205 8.37396 15.9438 8.05558C16.067 7.73715 15.9836 7.3828 15.7312 7.15277Z" fill="white"/>
<path d="M13.909 1.33533H10.7491L14.3796 4.63645V1.80583C14.3796 1.54598 14.1689 1.33533 13.909 1.33533Z" fill="white"/>
</g>
<defs>
<clipPath id="clip0">
<rect width="16" height="16" fill="white"/>
</clipPath>
</defs>
</svg>
