<svg width="16" height="20" viewBox="0 0 16 20" fill="none" xmlns="http://www.w3.org/2000/svg">
<rect y="5.77271" width="3.367" height="0.962" rx="0.481" fill="white"/>
<rect y="9.13879" width="3.367" height="0.962" rx="0.481" fill="white"/>
<rect y="12.5067" width="3.367" height="0.962" rx="0.481" fill="white"/>
<path d="M2.44318 1L14.8732 1L14.8732 18.24H2.44318L2.44318 1Z" fill="white" stroke="white" stroke-width="2"/>
<rect x="6.25262" y="11.5435" width="5.291" height="0.962" rx="0.481" fill="#2F2E41"/>
<rect x="6.25262" y="9" width="5.291" height="0.962" rx="0.481" fill="#2F2E41"/>
<rect x="6.25262" y="7" width="5.291" height="0.962" rx="0.481" fill="#2F2E41"/>
<path d="M1.44269 16.8348H3.60719C3.74001 16.8348 3.84769 16.9425 3.84769 17.0753C3.84769 17.2082 3.74001 17.3158 3.60719 17.3158H1.44269V16.8348Z" fill="#2F2E41"/>
<path d="M3.36676 19.2396L3.36676 17.0751C3.36676 16.9423 3.47444 16.8346 3.60726 16.8346C3.74008 16.8346 3.84776 16.9423 3.84776 17.0751L3.84776 19.2396L3.36676 19.2396Z" fill="#2F2E41"/>
</svg>
