<svg width="18" height="18" viewBox="0 0 18 18" fill="none" xmlns="http://www.w3.org/2000/svg">
<path d="M17.505 9.72314H11.2667C10.994 9.72314 10.7718 9.94539 10.7718 10.218C10.7718 10.3568 10.8308 10.4819 10.9228 10.5721L15.3155 14.9649C15.4058 15.0621 15.5361 15.1229 15.6785 15.1229C15.8504 15.1229 16.0014 15.0361 16.0899 14.9041C17.1699 13.6505 17.8644 12.0584 17.9895 10.3065C17.9965 10.277 17.9999 10.2475 17.9999 10.2179C18 9.94539 17.7794 9.72314 17.505 9.72314Z" fill="white"/>
<path d="M9.38281 0.755127C9.11017 0.756794 8.88971 0.97737 8.88971 1.24995V8.18287C8.88971 8.45723 9.11017 8.67947 9.38281 8.67947H16.3175C16.5901 8.67947 16.8123 8.45723 16.8123 8.18287C16.5675 4.193 13.3745 0.999983 9.38281 0.755127Z" fill="white"/>
<path d="M13.1939 14.5604L8.07891 9.44538C7.99213 9.35682 7.94007 9.23353 7.94007 9.09985L7.93824 1.87518C7.93824 1.6026 7.71777 1.38208 7.44513 1.38208C3.29025 1.6356 0 5.08726 0 9.30476C0 13.6888 3.55422 17.2447 7.93824 17.2447C9.93842 17.2447 11.765 16.5051 13.1609 15.2844C13.2686 15.1941 13.3363 15.0587 13.3363 14.9077C13.3363 14.7739 13.2825 14.6506 13.1939 14.5604Z" fill="white"/>
</svg>
