<svg width="18" height="18" viewBox="0 0 18 18" fill="none" xmlns="http://www.w3.org/2000/svg">
<g clip-path="url(#clip0)">
<path d="M6.43991 0.375316C4.41474 0.977277 2.66615 2.27301 1.50078 4.03531C1.34074 4.32407 1.2408 4.64222 1.207 4.97063V1.81093H0.00787354V6.60743H4.80438V5.40831H2.09435C3.43692 2.8255 6.09066 1.18993 9.00132 1.15141C12.4531 1.19155 15.4787 3.46925 16.4719 6.77531L17.623 6.43356C16.2078 1.67247 11.201 -1.03988 6.43991 0.375316Z" fill="white"/>
<path d="M13.1969 11.4038V12.603H15.9069C14.5643 15.1858 11.9106 16.8213 8.99995 16.8599C5.54815 16.8197 2.52257 14.542 1.5294 11.236L0.378235 11.5777C1.7995 16.337 6.80982 19.0429 11.5691 17.6217C13.6536 16.9992 15.4418 15.6421 16.6024 13.8021C16.7267 13.5674 16.7926 13.3062 16.7943 13.0406V16.2003H17.9934V11.4038H13.1969Z" fill="white"/>
<path d="M11.36 6.856H9.928C10.1627 7.02133 10.3307 7.24 10.432 7.512H11.36V7.968H10.536C10.5467 8.02133 10.552 8.10133 10.552 8.208C10.552 8.62933 10.44 8.98667 10.216 9.28C9.99733 9.57333 9.68533 9.78667 9.28 9.92L10.656 12H9.784L8.512 10.064C8.448 10.0693 8.352 10.072 8.224 10.072H6.84V9.384H8.2C8.72267 9.384 9.112 9.27733 9.368 9.064C9.624 8.84533 9.752 8.55467 9.752 8.192C9.752 8.13867 9.74667 8.064 9.736 7.968H6.232V7.512H9.592C9.34667 7.06933 8.86133 6.85067 8.136 6.856H6.232V6.4H11.36V6.856Z" fill="white"/>
</g>
<defs>
<clipPath id="clip0">
<rect width="18" height="18" fill="white"/>
</clipPath>
</defs>
</svg>
