<svg width="18" height="18" viewBox="0 0 18 18" fill="none" xmlns="http://www.w3.org/2000/svg">
<g clip-path="url(#clip0)">
<path d="M12.4649 8.01939C11.6407 9.83846 9.87592 10.6303 8.99999 10.6303C8.42405 10.6303 7.46385 10.2877 6.63936 9.53611C6.94083 9.55714 7.26303 9.5678 7.60734 9.5678C7.68814 9.5678 7.7729 9.56707 7.86347 9.56565C8.03705 9.69932 8.25204 9.77468 8.47516 9.77468H9.20878C9.76163 9.77468 10.2114 9.32493 10.2114 8.77208C10.2114 8.21922 9.76163 7.76947 9.20878 7.76947H8.47516C8.21013 7.76947 7.96227 7.87276 7.77842 8.05093C7.71734 8.05162 7.65713 8.05191 7.59805 8.05191C6.651 8.05191 6.02689 7.96505 5.61861 7.86029C5.67158 7.73142 5.70044 7.59042 5.70044 7.44321V4.90114C5.70044 4.63669 5.60228 4.3832 5.43257 4.18738C5.52315 3.48238 5.68752 2.94415 5.93284 2.54712C6.43835 1.72894 7.41298 1.3479 8.99999 1.3479C10.3165 1.3479 11.2257 1.6212 11.7793 2.18339C12.2085 2.6192 12.4572 3.24107 12.5734 4.18024C12.3999 4.3768 12.2995 4.63288 12.2995 4.90114V7.44321C12.2995 7.65473 12.3603 7.85212 12.4649 8.01939Z" fill="white"/>
<path d="M14.2687 8.0432H13.3887C13.0574 8.0432 12.7886 7.7745 12.7886 7.44305V4.90098C12.7886 4.67953 12.9088 4.48659 13.0872 4.38261C12.8907 2.30105 12.0875 0.858622 8.99994 0.858622C7.22689 0.858622 6.12006 1.31346 5.51674 2.2899C5.16568 2.85811 4.9968 3.59202 4.91791 4.38574C5.09349 4.49045 5.21136 4.68168 5.21136 4.90093V7.443C5.21136 7.72877 5.01142 7.96739 4.74395 8.02789C5.13188 8.28162 5.93504 8.54078 7.59805 8.54078C7.73274 8.54078 7.87315 8.53907 8.01939 8.53555C8.10497 8.37098 8.27674 8.25834 8.47511 8.25834H9.20867C9.49224 8.25834 9.7222 8.48826 9.7222 8.77187C9.7222 9.05549 9.49224 9.2854 9.20867 9.2854H8.47511C8.30374 9.2854 8.15232 9.20113 8.0591 9.07216C7.90465 9.07608 7.75343 9.07852 7.60729 9.07852C5.73276 9.07847 4.54113 8.75852 4.05851 8.1237C4.03796 8.0967 4.01923 8.0698 4.00216 8.0432H3.73107C3.39972 8.0432 3.13097 7.7745 3.13097 7.44305V4.90098C3.13097 4.56958 3.39967 4.30089 3.73107 4.30089H4.06208C4.1552 3.34191 4.36164 2.52554 4.78625 1.83849C5.55058 0.601368 6.92899 0 8.99998 0C11.0711 0 12.4494 0.601368 13.2138 1.83853C13.6383 2.52559 13.8447 3.34186 13.9378 4.30093H14.2688C14.6002 4.30093 14.8689 4.56958 14.8689 4.90103V7.4431C14.8689 7.7745 14.6001 8.0432 14.2687 8.0432Z" fill="white"/>
<path d="M1.74468 15.5182C1.94422 14.2776 2.355 12.6795 3.17885 12.1117C3.7406 11.7243 5.7018 10.6764 6.53924 10.229L6.55685 10.2196C6.65271 10.1684 6.76964 10.1787 6.85509 10.2457C7.29442 10.5906 7.77538 10.8229 8.28456 10.9362C8.37455 10.9562 8.44845 11.0202 8.48117 11.1064L9.00003 12.4739L9.51889 11.1064C9.55161 11.0202 9.62551 10.9562 9.7155 10.9362C10.2247 10.8229 10.7057 10.5906 11.1451 10.2457C11.2305 10.1786 11.3475 10.1684 11.4433 10.2196C12.2714 10.662 14.258 11.7319 14.8189 12.11C15.7676 12.7492 16.182 15.0613 16.2554 15.5183C16.2627 15.5636 16.2585 15.61 16.2431 15.6532C16.2092 15.7491 15.3389 18 9.00008 18C2.66131 18 1.79095 15.7491 1.75696 15.6533C1.7416 15.6099 1.73739 15.5635 1.74468 15.5182ZM4.69616 14.0936H7.20678V13.5648H4.69616V14.0936Z" fill="white"/>
</g>
<defs>
<clipPath id="clip0">
<rect width="18" height="18" fill="white" transform="matrix(-1 0 0 1 18 0)"/>
</clipPath>
</defs>
</svg>
