<svg width="40" height="40" viewBox="0 0 40 40" fill="none" xmlns="http://www.w3.org/2000/svg">
<g clip-path="url(#clip0)">
<path d="M33.0283 35.6567L26.191 28.8205L22.8768 32.1347C22.5907 32.4208 22.1753 32.5387 21.7793 32.4471C21.3833 32.3533 21.0651 32.0626 20.937 31.677L14.3075 11.7894C14.1667 11.3682 14.2765 10.9036 14.5901 10.59C14.9025 10.2776 15.3683 10.1631 15.7895 10.3074L35.6771 16.9369C36.0628 17.0651 36.3534 17.3832 36.4472 17.7792C36.54 18.174 36.4221 18.5894 36.1348 18.8767L32.8206 22.1909L39.6568 29.0281C40.1145 29.4859 40.1145 30.2275 39.6568 30.6852L34.6854 35.6566C34.2276 36.1145 33.4861 36.1145 33.0283 35.6567Z" fill="#2F2E41"/>
<path d="M15.2344 5.375C14.5866 5.375 14.0625 4.85086 14.0625 4.20312V-2.82812C14.0625 -3.47586 14.5866 -4 15.2344 -4C15.8821 -4 16.4062 -3.47586 16.4062 -2.82812V4.20312C16.4062 4.85086 15.8821 5.375 15.2344 5.375Z" fill="#2F2E41"/>
<path d="M9.43458 7.09169L4.46208 2.11919C4.00434 1.66145 4.00434 0.91981 4.46208 0.462075C4.91981 0.00434072 5.66145 0.00434072 6.11918 0.462075L11.0916 5.4345C11.5493 5.89224 11.5493 6.63388 11.0916 7.09161C10.6339 7.54942 9.89231 7.54942 9.43458 7.09169Z" fill="#2F2E41"/>
<path d="M4.46208 22.0066C4.00434 21.5489 4.00434 20.8073 4.46208 20.3495L9.4345 15.3771C9.89223 14.9194 10.6339 14.9194 11.0916 15.3771C11.5493 15.8348 11.5493 16.5765 11.0916 17.0342L6.11918 22.0066C5.66145 22.4644 4.91989 22.4644 4.46208 22.0066Z" fill="#2F2E41"/>
<path d="M19.3771 7.09166C18.9194 6.63393 18.9194 5.89229 19.3771 5.43455L24.3495 0.462136C24.8073 0.00440193 25.5489 0.00440193 26.0066 0.462136C26.4644 0.91987 26.4644 1.66151 26.0066 2.11924L21.0342 7.09166C20.5765 7.5494 19.8349 7.5494 19.3771 7.09166Z" fill="#2F2E41"/>
<path d="M8.20312 12.4062H1.17188C0.524141 12.4062 0 11.8821 0 11.2344C0 10.5866 0.524141 10.0625 1.17188 10.0625H8.20312C8.85086 10.0625 9.375 10.5866 9.375 11.2344C9.375 11.8821 8.85086 12.4062 8.20312 12.4062Z" fill="#2F2E41"/>
</g>
<defs>
<clipPath id="clip0">
<rect width="40" height="40" fill="white"/>
</clipPath>
</defs>
</svg>
