<svg width="40" height="40" viewBox="0 0 40 40" fill="none" xmlns="http://www.w3.org/2000/svg">
<path d="M9.34759 8.11053L25.2937 3.75791L24.4492 2.05101C23.8967 0.941519 22.5492 0.483349 21.4397 1.03585L7.16455 8.11053H9.34759Z" fill="#2F2E41"/>
<path d="M30.2436 3.88367C30.046 3.88367 29.8484 3.91062 29.6507 3.96452L25.9046 4.98866L14.4637 8.11051H27.4497H33.1095L32.4087 5.54116C32.1392 4.53948 31.2319 3.88367 30.2436 3.88367Z" fill="#2F2E41"/>
<path d="M35.4497 9.68268H34.9377H34.2414H33.5452H28.2313H8.70522H6.14486H3.98877H3.58899H2.25042C1.54071 9.68268 0.907355 10.0106 0.494104 10.5271C0.305446 10.7652 0.161707 11.0392 0.0808534 11.3402C0.031443 11.5288 0 11.7265 0 11.9286V12.1981V14.7585V36.9528C0 38.1926 1.00618 39.1987 2.24593 39.1987H35.4452C36.685 39.1987 37.6912 38.1926 37.6912 36.9528V30.6866H24.3638C22.2572 30.6866 20.5458 28.9752 20.5458 26.8685V24.8113V24.115V23.4188V21.8736C20.5458 20.8405 20.959 19.9017 21.6283 19.2144C22.2212 18.6035 23.0163 18.1903 23.9057 18.0869C24.0539 18.069 24.2066 18.06 24.3593 18.06H35.8226H36.5188H37.215H37.6912V11.9286C37.6957 10.6889 36.6895 9.68268 35.4497 9.68268Z" fill="#2F2E41"/>
<path d="M39.2678 20.2071C39.0432 20.0005 38.7782 19.8433 38.4818 19.7399C38.2526 19.6636 38.0101 19.6187 37.7541 19.6187H37.6957H37.6508H36.9545H34.4436H24.3639C23.1241 19.6187 22.1179 20.6248 22.1179 21.8646V22.9831V23.6793V24.3755V26.864C22.1179 28.1038 23.1241 29.11 24.3639 29.11H37.6957H37.7541C38.0101 29.11 38.2527 29.065 38.4818 28.9887C38.7782 28.8899 39.0432 28.7282 39.2678 28.5215C39.717 28.1128 40 27.5198 40 26.8641V21.8646C40 21.2088 39.717 20.6158 39.2678 20.2071ZM29.0533 24.8113C29.0533 25.4311 28.5503 25.9342 27.9304 25.9342H27.1847C26.5649 25.9342 26.0618 25.4311 26.0618 24.8113V24.0656C26.0618 23.7063 26.228 23.3873 26.493 23.1852C26.6861 23.0369 26.9243 22.9426 27.1847 22.9426H27.3734H27.9304C28.5503 22.9426 29.0533 23.4457 29.0533 24.0656V24.8113Z" fill="#2F2E41"/>
</svg>
