<svg width="40" height="40" viewBox="0 0 40 40" fill="none" xmlns="http://www.w3.org/2000/svg">
<path d="M20.0003 0C8.95511 0 0.000976562 8.9548 0.000976562 19.9996C0.000976562 31.0444 8.95511 40 20.0003 40C31.0455 40 40.0007 31.0449 40.0007 19.9996C40.0007 8.95427 31.0455 0 20.0003 0ZM30.0492 16.4403L25.1578 21.3317C24.6272 21.8623 23.9219 22.1544 23.1718 22.1544C22.4218 22.1544 21.7163 21.8621 21.1858 21.332L20.9942 21.1404L20.4734 21.6612L20.6646 21.8524C21.7598 22.9476 21.7598 24.7296 20.6646 25.8248L15.7738 30.7163C15.2432 31.2468 14.5379 31.5389 13.7874 31.5389C13.037 31.5389 12.3315 31.2467 11.8007 30.7159L9.95204 28.8667C8.85684 27.7721 8.85684 25.9903 9.95164 24.8947L14.8435 20.0035C15.374 19.4729 16.0794 19.1808 16.8299 19.1808C17.5804 19.1808 18.2854 19.4731 18.8163 20.0035L19.0072 20.1944L19.528 19.6736L19.3371 19.4827C18.2419 18.3879 18.2419 16.6059 19.3364 15.5107L24.2283 10.6192C24.7591 10.0884 25.4646 9.79613 26.2147 9.79613C26.9648 9.79613 27.6702 10.0884 28.2011 10.6188L30.0502 12.4685C31.1444 13.5631 31.1444 15.3453 30.0492 16.4403Z" fill="#2F2E41"/>
<path d="M19.0052 23.1279L18.0594 24.0736L16.5925 22.6071L17.5382 21.6613L17.3473 21.4704C17.2086 21.3321 17.0244 21.2556 16.8286 21.2556C16.6325 21.2556 16.4482 21.332 16.3096 21.4704L11.4181 26.3612C11.1321 26.6475 11.1321 27.113 11.4181 27.399L13.2674 29.2487C13.5452 29.5264 14.0285 29.526 14.3056 29.2491L19.1964 24.3576C19.4828 24.0714 19.4828 23.6055 19.1964 23.3191L19.0052 23.1279Z" fill="#2F2E41"/>
<path d="M26.7323 12.0857C26.5936 11.947 26.409 11.8706 26.2128 11.8706C26.0167 11.8706 25.832 11.947 25.6934 12.0861L20.8019 16.9773C20.5163 17.2635 20.5163 17.729 20.8023 18.0154L20.9935 18.2064L22.4442 16.7553L23.9111 18.2222L22.4604 19.6733L22.6517 19.8645C22.9294 20.1414 23.412 20.1418 23.6898 19.8641L28.581 14.9733C28.867 14.687 28.867 14.2215 28.581 13.9351L26.7323 12.0857Z" fill="#2F2E41"/>
</svg>
