<svg width="33" height="40" viewBox="0 0 33 40" fill="none" xmlns="http://www.w3.org/2000/svg">
<rect y="12" width="7" height="2" rx="1" fill="#2F2E41"/>
<rect y="19" width="7" height="2" rx="1" fill="#2F2E41"/>
<rect y="26" width="7" height="2" rx="1" fill="#2F2E41"/>
<path d="M4 0.999999L32 1L32 39H4L4 0.999999Z" fill="#2F2E41" stroke="#2F2E41" stroke-width="2"/>
<rect x="13" y="24" width="11" height="2" rx="1" fill="white"/>
<path d="M3 35H7.5C7.77614 35 8 35.2239 8 35.5C8 35.7761 7.77614 36 7.5 36H3V35Z" fill="white"/>
<path d="M7 40L7 35.5C7 35.2239 7.22386 35 7.5 35C7.77614 35 8 35.2239 8 35.5L8 40L7 40Z" fill="white"/>
<path d="M14 18.5C14 16.0147 16.0147 14 18.5 14H19C21.2091 14 23 15.7909 23 18V20H14V18.5Z" stroke="white" stroke-width="2"/>
<rect x="11" y="19" width="15" height="2" rx="1" fill="white"/>
<rect x="18" y="12" width="2" height="2" rx="1" fill="white"/>
</svg>
