<svg width="34" height="40" viewBox="0 0 34 40" fill="none" xmlns="http://www.w3.org/2000/svg">
<path d="M25.6618 8.0156C28.2255 8.0156 30.2561 8.76627 31.7536 10.2676C33.2512 11.7435 34 13.9701 34 16.9473V39.037H29.2408V17.558C29.2408 15.7767 28.8473 14.4408 28.0605 13.5502C27.2736 12.6341 26.1441 12.1761 24.6719 12.1761C23.0728 12.1761 21.791 12.7105 20.8264 13.7792C19.8619 14.8225 19.3796 16.3238 19.3796 18.2832V28.6272H14.6204V17.558C14.6204 15.7767 14.227 14.4408 13.4401 13.5502C12.6532 12.6341 11.5237 12.1761 10.0515 12.1761C8.42703 12.1761 7.13251 12.6977 6.16797 13.741C5.22882 14.7843 4.75924 16.2984 4.75924 18.2832V28.6272H0V0H4.5308V10.8401C5.29227 9.92408 6.24412 9.2243 7.38634 8.74082C8.52856 8.25734 9.79769 8.0156 11.1937 8.0156C12.7167 8.0156 14.062 8.30824 15.2296 8.8935C16.4225 9.45332 17.3617 10.2931 18.047 11.4127C18.8847 10.3439 19.9634 9.51694 21.2833 8.93167C22.6032 8.32096 24.0627 8.0156 25.6618 8.0156Z" fill="#2F2E41"/>
</svg>
